# AST/ASF file generated using VICON BodyLanguage
# -----------------------------------------------
:version 1.10
:name VICON
:units
  mass 1.0
  length 0.45
  angle deg
:documentation
   .ast/.asf automatically generated from VICON data using
   VICON BodyBuilder and BodyLanguage model FoxedUp or BRILLIANT.MOD
:root
   order TX TY TZ RX RY RZ
   axis XYZ
   position 0 0 0  
   orientation 0 -0 0 
:bonedata
  begin
     id 1 
     name lhipjoint
     direction 0.432694 -0.693742 0.575759 
     length 2.19277 
     axis 0 -0 0  XYZ
  end
  begin
     id 2 
     name lfemur
     direction 0.34202 -0.939693 0  
     length 6.69022  
     axis 0 -0 20  XYZ
    dof rx ry rz
    limits (-160.0 20.0)
           (-70.0 70.0)
           (-60.0 70.0)
  end
  begin
     id 3 
     name ltibia
     direction 0.34202 -0.939693 0   
     length 6.50337   
     axis 0 -0 20   XYZ
    dof rx
    limits (-10.0 170.0)
  end
  begin
     id 4 
     name lfoot
     direction 0.158999 -0.435969 0.885805   
     length 2.70564   
     axis -90 -1.13533e-015 20   XYZ
    dof rx rz
    limits (-45.0 90.0)
           (-70.0 20.0)
  end
  begin
     id 5 
     name ltoes
     direction -0.00592919 0.00964381 0.999936   
     length 1.29929   
     axis -90 -1.13533e-015 20   XYZ
    dof rx
    limits (-90.0 20.0)
  end
  begin
     id 6 
     name rhipjoint
     direction -0.414359 -0.700339 0.581234   
     length 2.17212  
     axis 0 -0 0  XYZ 
  end
  begin
     id 7 
     name rfemur
     direction -0.34202 -0.939693 0   
     length 7.17659   
     axis 0 -0 -20   XYZ
    dof rx ry rz
    limits (-160.0 20.0)
           (-70.0 70.0)
           (-70.0 60.0)
  end
  begin
     id 8 
     name rtibia
     direction -0.34202 -0.939693 0   
     length 6.36669   
     axis 0 -0 -20   XYZ
    dof rx
    limits (-10.0 170.0)
 end
 begin
     id 9 
     name rfoot
     direction -0.137064 -0.37658 0.916188   
     length 2.22351  
     axis -90 1.13533e-015 -20   XYZ
    dof rx rz
    limits (-45.0 90.0)
           (-20.0 70.0)
  end
  begin
     id 10 
     name rtoes
     direction -0.000784077 -0.00289101 0.999996   
     length 1.09522   
     axis -90 1.13533e-015 -20   XYZ
    dof rx
    limits (-90.0 20.0)
  end
  begin
     id 11 
     name lowerback
     direction -0.0176242 0.984912 -0.172157   
     length 1.65301   
     axis 0 -0 0   XYZ
    dof rx ry rz
    limits (-20.0 45.0)
           (-30.0 30.0)
           (-30.0 30.0)
  end
  begin
     id 12 
     name upperback
     direction -0.00218128 0.998776 -0.0494072   
     length 1.67776   
     axis 0 -0 0   XYZ
    dof rx ry rz
    limits (-20.0 45.0)
           (-30.0 30.0)
           (-30.0 30.0)
  end
  begin
     id 13 
     name thorax
     direction 0.00544186 0.999658 0.0255711   
     length 1.72293   
     axis 0 -0 0   XYZ
    dof rx ry rz
    limits (-20.0 45.0)
           (-30.0 30.0)
           (-30.0 30.0)
  end
  begin
     id 14 
     name lowerneck
     direction -0.105325 0.983841 0.144785   
     length 2.14226   
     axis 0 -0 0   XYZ
    dof rx ry rz
    limits (-20.0 45.0)
           (-30.0 30.0)
           (-30.0 30.0)
  end
  begin
     id 15 
     name upperneck
     direction 0.0547957 0.988053 -0.144041   
     length 2.17508   
     axis 0 -0 0   XYZ
    dof rx ry rz
    limits (-20.0 45.0)
           (-30.0 30.0)
           (-30.0 30.0)
  end
  begin
     id 16
     name head
     direction 0.0247488 0.997534 -0.0656813  
     length 2.20048  
     axis 0 -0 0   XYZ
    dof rx ry rz
    limits (-20.0 45.0)
           (-30.0 30.0)
           (-30.0 30.0)
  end
  begin
     id 17 
     name lclavicle
     direction 0.820559 0.567247 -0.0701026  
     length 4.09615  
     axis 0 -0 0   XYZ
    dof ry rz
    limits (-20.0 10.0)
           (0.0 20.0)
  end
  begin
     id 18 
     name lhumerus
     direction 0.999977 -0.0067566 -9.96392e-005   
     length 4.59333   
     axis -180 -30 -90   XYZ
    dof rx ry rz
    limits (-60.0 90.0)
           (-90.0 90.0)
           (-90.0 90.0)
  end
  begin
     id 19
     name lradius
     direction 1 -4.48982e-011 -2.53425e-027   
     length 2.81151   
     axis -180 -30 -90   XYZ
    dof rx
    limits (-10.0 170.0)
  end
  begin
     id 20
     name lwrist
     direction 1 -4.48939e-011 -7.39254e-028   
     length 1.40576   
     axis 2.56395e-016 90 90   XYZ
    dof ry
    limits (-180.0 0.0)
 end
  begin
     id 21 
     name lhand
     direction 1 -4.48939e-011 -1.47851e-027   
     length 0.895651   
     axis 9.43423e-016 90 90   XYZ
    dof rx rz
    limits (-90.0 90.0)
           (-45.0 45.0)
  end
  begin
     id 22 
     name lfingers
     direction 1 -4.48978e-011 -2.95702e-027   
     length 0.722097   
     axis 1.88685e-015 90 90   XYZ
    dof rx
    limits (0.0 90.0)
  end
  begin
     id 23
     name lthumb
     direction 0.707107 -6.34931e-011 0.707107   
     length 1.03679   
     axis -90 45 -9.86935e-015   XYZ
    dof rx rz
    limits (-45.0 45.0)
           (-45.0 45.0)
  end
  begin
     id 24 
     name rclavicle
     direction -0.831414 0.553102 -0.0531864   
     length 4.24872  
     axis 0 -0 0   XYZ 
    dof ry rz
    limits (-10.0 20.0)
           (-20.0 0.0)
  end
  begin
     id 25 
     name rhumerus
     direction -0.999916 -0.000939607 0.0129331  
     length 4.74834   
     axis -180 30 90   XYZ
    dof rx ry rz
    limits (-90.0 60.0)
           (-90.0 90.0)
           (-90.0 90.0)
  end
  begin
     id 26 
     name rradius
     direction -1 -4.48956e-011 -1.31752e-027   
     length 2.79907   
     axis -180 30 90   XYZ
    dof rx
    limits (-10.0 170.0)
  end
  begin
     id 27 
     name rwrist
     direction -1 -4.4897e-011 -7.39254e-028   
     length 1.39954   
     axis 2.56395e-016 -90 -90   XYZ
    dof ry
    limits (-180.0 0.0)
  end
  begin
     id 28
     name rhand
     direction -0.999997 -0.00250697 0.000800838   
     length 0.953304   
     axis 9.43423e-016 -90 -90   XYZ
    dof rx rz
    limits (-90.0 90.0)
           (-45.0 45.0)
  end
  begin
     id 29
     name rfingers
     direction -1 -4.48954e-011 -2.95702e-027   
     length 0.763342   
     axis 1.88685e-015 -90 -90   XYZ
    dof rx
    limits (0.0 90.0)
  end
  begin
     id 30
     name rthumb
     direction -0.709701 -0.00217037 0.7045   
     length 1.10115   
     axis -90 -45 9.86935e-015   XYZ
    dof rx rz
    limits (-45.0 45.0)
           (-45.0 45.0)
  end
:hierarchy
  begin
    root lhipjoint rhipjoint lowerback
    lhipjoint lfemur
    lfemur ltibia
    ltibia lfoot
    lfoot ltoes
    rhipjoint rfemur
    rfemur rtibia
    rtibia rfoot
    rfoot rtoes
    lowerback upperback
    upperback thorax
    thorax lowerneck lclavicle rclavicle
    lowerneck upperneck
    upperneck head
    lclavicle lhumerus
    lhumerus lradius
    lradius lwrist
    lwrist lhand lthumb
    lhand lfingers
    rclavicle rhumerus
    rhumerus rradius
    rradius rwrist
    rwrist rhand rthumb
    rhand rfingers
  end

#!OML:ASF G:\ViconDB\ViconDB\414\test\team2\shane.ASF
:FULLY-SPECIFIED
:DEGREES
83
root 1.28652 14.9929 -31.5414 42.3083 10.1373 -10.5196
lowerback 24.3166 3.84403 -6.3681
upperback 14.8535 3.72278 -2.32541
thorax 2.79166 1.57975 0.280562
lowerneck -15.2272 -10.0208 -18.3978
upperneck 9.27548 -9.85837 3.09213
head 6.34885 -5.20769 2.7822
rclavicle 4.28381e-014 -5.53864e-014
rhumerus 49.5972 9.17836 -48.9182
rradius 26.0045
rwrist 42.0132
rhand -31.1986 -16.0962
rfingers 7.12502
rthumb -4.47493 -46.0289
lclavicle 4.28381e-014 -5.53864e-014
lhumerus 46.7187 -21.5173 30.4448
lradius 26.0487
lwrist 3.74632
lhand -46.7017 19.6951
lfingers 7.12502
lthumb -19.4205 48.7453
rfemur -31.217 -26.7859 39.0775
rtibia 43.399
rfoot -30.0419 1.63624
rtoes -32.8571
lfemur -79.1596 7.99451 -24.2491
ltibia 70.7291
lfoot -33.6725 -14.7156
ltoes -5.20018
84
root 1.31251 14.9555 -31.2263 43.1696 10.8767 -11.8383
lowerback 24.3166 3.84403 -6.3681
upperback 14.8535 3.72278 -2.32541
thorax 2.79166 1.57975 0.280562
lowerneck -15.2272 -10.0208 -18.3978
upperneck 9.27548 -9.85837 3.09213
head 6.34885 -5.20769 2.7822
rclavicle 4.28381e-014 -5.53864e-014
rhumerus 49.5972 9.17836 -48.9182
rradius 26.0045
rwrist 42.0132
rhand -31.1986 -16.0962
rfingers 7.12502
rthumb -4.47493 -46.0289
lclavicle 4.28381e-014 -5.53864e-014
lhumerus 46.7187 -21.5173 30.4448
lradius 26.0487
lwrist 3.74632
lhand -46.7017 19.6951
lfingers 7.12502
lthumb -19.4205 48.7453
rfemur -31.7308 -27.9548 40.1041
rtibia 44.0955
rfoot -27.7238 6.55487
rtoes -34.833
lfemur -78.3174 6.48881 -20.5741
ltibia 70.4618
lfoot -35.6972 -12.7
ltoes -4.20868
85
root 1.34748 14.9051 -30.9175 44.0181 11.605 -13.0241
lowerback 24.3166 3.84403 -6.3681
upperback 14.8535 3.72278 -2.32541
thorax 2.79166 1.57975 0.280562
lowerneck -15.2272 -10.0208 -18.3978
upperneck 9.27548 -9.85837 3.09213
head 6.34885 -5.20769 2.7822
rclavicle 4.28381e-014 -5.53864e-014
rhumerus 49.5972 9.17836 -48.9182
rradius 26.0045
rwrist 42.0132
rhand -31.1986 -16.0962
rfingers 7.12502
rthumb -4.47493 -46.0289
lclavicle 4.28381e-014 -5.53864e-014
lhumerus 46.7187 -21.5173 30.4448
lradius 26.0487
lwrist 3.74632
lhand -46.7017 19.6951
lfingers 7.12502
lthumb -19.4205 48.7453
rfemur -32.0827 -28.7628 40.445
rtibia 44.9103
rfoot -25.1809 12.5101
rtoes -34.8269
lfemur -77.5827 5.0921 -17.7254
ltibia 70.2861
lfoot -37.1748 -8.36776
ltoes -3.00394
86
root 1.39458 14.8883 -30.6007 45.0077 12.6159 -14.0863
lowerback 24.3166 3.84403 -6.3681
upperback 14.8535 3.72278 -2.32541
thorax 2.79166 1.57975 0.280562
lowerneck -15.2272 -10.0208 -18.3978
upperneck 9.27548 -9.85837 3.09213
head 6.34885 -5.20769 2.7822
rclavicle 4.28381e-014 -5.53864e-014
rhumerus 49.5972 9.17836 -48.9182
rradius 26.0045
rwrist 42.0132
rhand -31.1986 -16.0962
rfingers 7.12502
rthumb -4.47493 -46.0289
lclavicle 4.28381e-014 -5.53864e-014
lhumerus 46.7187 -21.5173 30.4448
lradius 26.0487
lwrist 3.74632
lhand -46.7017 19.6951
lfingers 7.12502
lthumb -19.4205 48.7453
rfemur -32.3907 -29.4408 40.6037
rtibia 45.2638
rfoot -21.527 18.745
rtoes -33.8046
lfemur -77.5024 3.52912 -14.5595
ltibia 70.4772
lfoot -38.2646 -6.30359
ltoes -2.91456
87
root 1.43582 14.8109 -30.3043 45.9846 13.59 -15.2334
lowerback 24.3166 3.84403 -6.3681
upperback 14.8535 3.72278 -2.32541
thorax 2.79166 1.57975 0.280562
lowerneck -15.2272 -10.0208 -18.3978
upperneck 9.27548 -9.85837 3.09213
head 6.34885 -5.20769 2.7822
rclavicle 4.28381e-014 -5.53864e-014
rhumerus 49.5972 9.17836 -48.9182
rradius 26.0045
rwrist 42.0132
rhand -31.1986 -16.0962
rfingers 7.12502
rthumb -4.47493 -46.0289
lclavicle 4.28381e-014 -5.53864e-014
lhumerus 46.7187 -21.5173 30.4448
lradius 26.0487
lwrist 3.74632
lhand -46.7017 19.6951
lfingers 7.12502
lthumb -19.4205 48.7453
rfemur -32.6331 -29.9524 40.4945
rtibia 45.9225
rfoot -16.4185 25.0915
rtoes -28.0771
lfemur -77.482 2.92966 -12.5552
ltibia 70.8544
lfoot -39.4565 -2.98098
ltoes -4.54067
88
root 1.4899 14.8289 -29.9686 46.863 14.3527 -16.5997
lowerback 24.3166 3.84403 -6.3681
upperback 14.8535 3.72278 -2.32541
thorax 2.79166 1.57975 0.280562
lowerneck -15.2272 -10.0208 -18.3978
upperneck 9.27548 -9.85837 3.09213
head 6.34885 -5.20769 2.7822
rclavicle 4.28381e-014 -5.53864e-014
rhumerus 49.5972 9.17836 -48.9182
rradius 26.0045
rwrist 42.0132
rhand -31.1986 -16.0962
rfingers 7.12502
rthumb -4.47493 -46.0289
lclavicle 4.28381e-014 -5.53864e-014
lhumerus 46.7187 -21.5173 30.4448
lradius 26.0487
lwrist 3.74632
lhand -46.7017 19.6951
lfingers 7.12502
lthumb -19.4205 48.7453
rfemur -32.3557 -29.972 40.158
rtibia 46.4127
rfoot -11.1256 29.5957
rtoes -20.5917
lfemur -77.6621 2.33516 -9.01873
ltibia 71.3819
lfoot -39.8732 -4.31035
ltoes -2.67107
89
root 1.53495 14.7735 -29.6643 47.8226 15.2329 -17.9179
lowerback 24.3166 3.84403 -6.3681
upperback 14.8535 3.72278 -2.32541
thorax 2.79166 1.57975 0.280562
lowerneck -15.2272 -10.0208 -18.3978
upperneck 9.27548 -9.85837 3.09213
head 6.34885 -5.20769 2.7822
rclavicle 4.28381e-014 -5.53864e-014
rhumerus 49.5972 9.17836 -48.9182
rradius 26.0045
rwrist 42.0132
rhand -31.1986 -16.0962
rfingers 7.12502
rthumb -4.47493 -46.0289
lclavicle 4.28381e-014 -5.53864e-014
lhumerus 46.7187 -21.5173 30.4448
lradius 26.0487
lwrist 3.74632
lhand -46.7017 19.6951
lfingers 7.12502
lthumb -19.4205 48.7453
rfemur -31.9617 -29.868 39.6094
rtibia 47.4586
rfoot -11.9567 28.1893
rtoes -19.1364
lfemur -77.6207 2.63546 -7.22571
ltibia 71.922
lfoot -40.9996 -2.24048
ltoes -5.65985
90
root 1.58558 14.7342 -29.3471 48.7958 16.2935 -19.3289
lowerback 24.3166 3.84403 -6.3681
upperback 14.8535 3.72278 -2.32541
thorax 2.79166 1.57975 0.280562
lowerneck -15.2272 -10.0208 -18.3978
upperneck 9.27548 -9.85837 3.09213
head 6.34885 -5.20769 2.7822
rclavicle 4.28381e-014 -5.53864e-014
rhumerus 49.5972 9.17836 -48.9182
rradius 26.0045
rwrist 42.0132
rhand -31.1986 -16.0962
rfingers 7.12502
rthumb -4.47493 -46.0289
lclavicle 4.28381e-014 -5.53864e-014
lhumerus 46.7187 -21.5173 30.4448
lradius 26.0487
lwrist 3.74632
lhand -46.7017 19.6951
lfingers 7.12502
lthumb -19.4205 48.7453
rfemur -31.2997 -30.0821 39.0194
rtibia 48.5185
rfoot -13.6743 22.7204
rtoes -22.0185
lfemur -77.8487 3.38695 -5.40518
ltibia 72.4016
lfoot -41.6635 -1.27784
ltoes -8.50701
91
root 1.63926 14.72 -29.0153 49.6464 17.0553 -20.9651
lowerback 24.3166 3.84403 -6.3681
upperback 14.8535 3.72278 -2.32541
thorax 2.79166 1.57975 0.280562
lowerneck -15.2272 -10.0208 -18.3978
upperneck 9.27548 -9.85837 3.09213
head 6.34885 -5.20769 2.7822
rclavicle 4.28381e-014 -5.53864e-014
rhumerus 49.5972 9.17836 -48.9182
rradius 26.0045
rwrist 42.0132
rhand -31.1986 -16.0962
rfingers 7.12502
rthumb -4.47493 -46.0289
lclavicle 4.28381e-014 -5.53864e-014
lhumerus 46.7187 -21.5173 30.4448
lradius 26.0487
lwrist 3.74632
lhand -46.7017 19.6951
lfingers 7.12502
lthumb -19.4205 48.7453
rfemur -30.2404 -29.9497 37.9287
rtibia 49.8669
rfoot -14.2333 17.6629
rtoes -21.3563
lfemur -77.7648 4.6997 -3.34057
ltibia 72.7494
lfoot -42.1406 -2.25132
ltoes -9.92982
92
root 1.69844 14.7075 -28.6776 50.6004 17.963 -22.6446
lowerback 24.3166 3.84403 -6.3681
upperback 14.8535 3.72278 -2.32541
thorax 2.79166 1.57975 0.280562
lowerneck -15.2272 -10.0208 -18.3978
upperneck 9.27548 -9.85837 3.09213
head 6.34885 -5.20769 2.7822
rclavicle 4.28381e-014 -5.53864e-014
rhumerus 49.5972 9.17836 -48.9182
rradius 26.0045
rwrist 42.0132
rhand -31.1986 -16.0962
rfingers 7.12502
rthumb -4.47493 -46.0289
lclavicle 4.28381e-014 -5.53864e-014
lhumerus 46.7187 -21.5173 30.4448
lradius 26.0487
lwrist 3.74632
lhand -46.7017 19.6951
lfingers 7.12502
lthumb -19.4205 48.7453
rfemur -29.0587 -29.8726 36.6752
rtibia 51.033
rfoot -14.0818 16.1203
rtoes -20.4826
lfemur -77.6689 6.16456 -1.34116
ltibia 72.9211
lfoot -42.4578 -3.21336
ltoes -11.7907
93
root 1.76376 14.6924 -28.3441 51.6516 19.0607 -24.067
lowerback 26.8442 4.52005 -13.1294
upperback 14.247 2.65052 -6.6256
thorax 1.19024 0.863927 -0.590621
lowerneck -26.385 -7.86065 -15.7197
upperneck 7.32983 -6.7456 10.3329
head 7.30445 -2.79799 5.03265
rclavicle -3.81667e-014 -6.36111e-014
rhumerus 78.5854 8.38063 -55.746
rradius 25.332
rwrist 45.2558
rhand -36.6483 -17.1725
rfingers 7.12502
rthumb -9.73536 -46.9275
lclavicle -3.81667e-014 -6.36111e-014
lhumerus 46.7187 -21.5173 30.4448
lradius 26.0487
lwrist 3.74632
lhand -46.7017 19.6951
lfingers 7.12502
lthumb -19.4205 48.7453
rfemur -27.805 -29.9928 35.1192
rtibia 52.0189
rfoot -14.3195 16.4482
rtoes -21.7078
lfemur -77.717 7.55837 0.212875
ltibia 72.878
lfoot -42.6862 -3.44796
ltoes -14.3574
94
root 1.83701 14.6913 -27.9993 52.8891 20.1492 -25.3041
lowerback 28.5745 4.7144 -13.4283
upperback 13.1595 2.31953 -6.90017
thorax -0.833603 0.809279 -0.738382
lowerneck -27.3435 -7.68422 -14.8933
upperneck 8.05301 -6.66428 10.2221
head 7.64922 -2.72427 4.87397
rclavicle -7.31528e-014 4.13472e-014
rhumerus 78.3713 7.70357 -56.9684
rradius 25.2266
rwrist 44.9015
rhand -37.4268 -17.4701
rfingers 7.12502
rthumb -10.4864 -47.1885
lclavicle -7.31528e-014 4.13472e-014
lhumerus 46.7187 -21.5173 30.4448
lradius 26.0487
lwrist 3.74632
lhand -46.7017 19.6951
lfingers 7.12502
lthumb -19.4205 48.7453
rfemur -26.2755 -29.3769 32.9082
rtibia 52.7739
rfoot -13.5204 18.1358
rtoes -21.5527
lfemur -77.5469 8.83166 2.53047
ltibia 72.6253
lfoot -42.4598 -7.94708
ltoes -13.2853
95
root 1.91691 14.7017 -27.6481 54.2274 21.6002 -26.3199
lowerback 28.7951 4.54449 -13.6655
upperback 12.8884 1.99864 -6.68674
thorax -1.23257 0.662662 -0.286803
lowerneck -27.8887 -7.44655 -14.9737
upperneck 7.88628 -6.19569 10.1389
head 7.61132 -2.49121 4.9286
rclavicle -3.18055e-015 5.08889e-014
rhumerus 79.1213 6.97129 -56.4574
rradius 25.573
rwrist 44.1114
rhand -38.1876 -17.9083
rfingers 7.12502
rthumb -11.2202 -47.5883
lclavicle -3.18055e-015 5.08889e-014
lhumerus 46.7187 -21.5173 30.4448
lradius 26.0487
lwrist 3.74632
lhand -46.7017 19.6951
lfingers 7.12502
lthumb -19.4205 48.7453
rfemur -24.7626 -29.2942 30.8775
rtibia 53.3147
rfoot -12.9337 20.2217
rtoes -22.218
lfemur -77.7339 9.96476 3.95512
ltibia 72.2298
lfoot -42.4894 -8.93562
ltoes -14.3181
96
root 2.00078 14.7069 -27.3031 55.5946 23.1395 -27.3112
lowerback 29.1321 4.35954 -13.9291
upperback 12.5895 1.63617 -6.34307
thorax -1.71016 0.498508 0.336036
lowerneck -28.5032 -7.277 -15.1655
upperneck 7.77616 -5.74038 9.90752
head 7.59923 -2.2815 4.94628
rclavicle 1.27222e-014 1.74931e-014
rhumerus 80.0708 6.20682 -55.2268
rradius 25.8585
rwrist 43.2284
rhand -38.5632 -18.4289
rfingers 7.12502
rthumb -11.5824 -48.0889
lclavicle 1.27222e-014 1.74931e-014
lhumerus 46.7187 -21.5173 30.4448
lradius 26.0487
lwrist 3.74632
lhand -46.7017 19.6951
lfingers 7.12502
lthumb -19.4205 48.7453
rfemur -23.1293 -28.9521 28.7626
rtibia 53.6557
rfoot -11.9516 21.745
rtoes -22.1134
lfemur -77.8386 10.9703 5.40581
ltibia 71.5009
lfoot -42.2672 -9.8216
ltoes -15.8833
